<?xml version="1.0"?>
<svg xmlns="http://www.w3.org/2000/svg" viewBox="0 0 100 100"><g id="Layer_1"><g id="icon"><g><path d="M73.792 27.662L38.961 67.544a3.008 3.008 0 0 1-4.233.286L15.951 51.431a3.008 3.008 0 0 1-.286-4.233l34.83-39.882a3.008 3.008 0 0 1 4.233-.286l18.778 16.399a3.01 3.01 0 0 1 .286 4.233z" fill="#d0dcb1"/><g><path d="M69.137 27.069l-31.58 36.16a1.003 1.003 0 0 1-1.411.095L20.154 49.358a1.003 1.003 0 0 1-.095-1.411l31.58-36.16a1.003 1.003 0 0 1 1.411-.095l15.992 13.966c.414.361.457.996.095 1.411z" fill="none" stroke="#889b5f" stroke-width="2.95"/><g><ellipse transform="rotate(-87.719 23.461 47.58)" cx="23.461" cy="47.58" rx="4.073" ry="3.417" fill="#889b5f"/><ellipse transform="rotate(-10.014 51.937 14.993)" cx="51.923" cy="14.99" rx="4.073" ry="3.417" fill="#889b5f"/><ellipse transform="rotate(-10.014 37.545 59.885)" cx="37.534" cy="59.87" rx="4.073" ry="3.417" fill="#889b5f"/><ellipse transform="rotate(-87.719 65.996 27.28)" cx="65.995" cy="27.281" rx="4.073" ry="3.417" fill="#889b5f"/></g></g></g><g><path d="M78.209 43.755L29.86 65.347a3.009 3.009 0 0 1-3.963-1.516L15.732 41.068a3.009 3.009 0 0 1 1.516-3.963l48.348-21.592a3.009 3.009 0 0 1 3.963 1.516l10.166 22.764a3.01 3.01 0 0 1-1.516 3.962z" fill="#d0dcb1"/><g><path d="M74.232 41.264L30.396 60.841a1.003 1.003 0 0 1-1.321-.505l-8.658-19.387a1.003 1.003 0 0 1 .505-1.321l43.836-19.577a1.003 1.003 0 0 1 1.321.505l8.658 19.387a1.002 1.002 0 0 1-.505 1.321z" fill="none" stroke="#889b5f" stroke-width="2.95"/><g><ellipse transform="rotate(-62.915 24.167 40.724)" cx="24.165" cy="40.722" rx="4.073" ry="3.417" fill="#889b5f"/><ellipse transform="rotate(-75.215 63.672 23.078)" cx="63.673" cy="23.078" rx="3.417" ry="4.073" fill="#889b5f"/><ellipse transform="rotate(-75.215 31.783 57.781)" cx="31.784" cy="57.782" rx="3.417" ry="4.073" fill="#889b5f"/><ellipse transform="rotate(-62.915 71.296 40.14)" cx="71.291" cy="40.138" rx="4.073" ry="3.417" fill="#889b5f"/></g></g></g><g><path d="M84.33 79.628c0 6.557-5.315 11.872-11.872 11.872H14.502V32.048h57.956c6.557 0 11.872 5.315 11.872 11.872v35.708z" fill="#f5b81e"/><path d="M70.537 87.674h-.656a.546.546 0 0 1 0-1.094h.656a.547.547 0 0 1 0 1.094zm-3.279 0h-.656a.546.546 0 0 1 0-1.094h.656a.547.547 0 0 1 0 1.094zm-3.279 0h-.656a.547.547 0 0 1 0-1.094h.656a.547.547 0 0 1 0 1.094zm-3.279 0h-.656a.546.546 0 0 1 0-1.094h.656a.546.546 0 0 1 0 1.094zm-3.28 0h-.656a.546.546 0 0 1 0-1.094h.656a.547.547 0 0 1 0 1.094zm-3.279 0h-.656a.547.547 0 0 1 0-1.094h.656a.547.547 0 0 1 0 1.094zm-3.279 0h-.656a.547.547 0 0 1 0-1.094h.656a.546.546 0 0 1 0 1.094zm-3.28 0h-.656a.547.547 0 0 1 0-1.094h.656a.547.547 0 0 1 0 1.094zm-3.279 0h-.656a.547.547 0 0 1 0-1.094h.656a.547.547 0 0 1 0 1.094zm-3.279 0h-.656a.547.547 0 0 1 0-1.094h.656a.546.546 0 0 1 0 1.094zm-3.28 0h-.656a.547.547 0 0 1 0-1.094h.656a.547.547 0 0 1 0 1.094zm-3.279 0h-.656a.546.546 0 0 1 0-1.094h.656a.546.546 0 0 1 0 1.094zm-3.279 0h-.656a.547.547 0 0 1 0-1.094h.656a.546.546 0 0 1 0 1.094zm-3.28 0h-.656a.547.547 0 0 1 0-1.094h.656a.547.547 0 0 1 0 1.094zm-3.279 0h-.656a.547.547 0 0 1 0-1.094h.656a.546.546 0 0 1 0 1.094zm-3.279 0h-.656a.547.547 0 0 1 0-1.094h.656a.547.547 0 0 1 0 1.094zm-3.28 0h-.656a.547.547 0 0 1 0-1.094h.656a.547.547 0 0 1 0 1.094zm55.091-.032a.548.548 0 0 1-.051-1.091 7.14 7.14 0 0 0 .602-.083.546.546 0 1 1 .196 1.076 8.109 8.109 0 0 1-.697.096.803.803 0 0 1-.05.002zm3.095-1.001a.546.546 0 0 1-.278-1.017 7.54 7.54 0 0 0 .51-.331.547.547 0 0 1 .635.89 8.48 8.48 0 0 1-.589.383.558.558 0 0 1-.278.075zm2.38-2.217a.548.548 0 0 1-.449-.858c.114-.165.223-.339.323-.514a.546.546 0 1 1 .95.54 8.51 8.51 0 0 1-.374.596.545.545 0 0 1-.45.236zm1.222-3.015a.546.546 0 0 1-.539-.636c.033-.198.058-.401.073-.603a.546.546 0 1 1 1.09.084 8.06 8.06 0 0 1-.085.698.547.547 0 0 1-.539.457zm.102-3.273a.547.547 0 0 1-.547-.546v-.656a.547.547 0 0 1 1.094 0v.656a.547.547 0 0 1-.547.546zm0-3.279a.546.546 0 0 1-.547-.547v-.656a.546.546 0 0 1 1.094 0v.656a.548.548 0 0 1-.547.547zm0-3.279a.547.547 0 0 1-.547-.547v-.656a.546.546 0 0 1 1.094 0v.656a.548.548 0 0 1-.547.547zm0-3.28a.547.547 0 0 1-.547-.547v-.656a.547.547 0 0 1 1.094 0v.656a.547.547 0 0 1-.547.547zm0-3.279a.547.547 0 0 1-.547-.547v-.656a.546.546 0 0 1 1.094 0v.656a.548.548 0 0 1-.547.547zm0-3.279a.547.547 0 0 1-.547-.547v-.656a.547.547 0 0 1 1.094 0v.656a.548.548 0 0 1-.547.547zm0-3.28a.547.547 0 0 1-.547-.547v-.656a.547.547 0 0 1 1.094 0v.656a.547.547 0 0 1-.547.547zm0-3.279a.547.547 0 0 1-.547-.547v-.656a.547.547 0 0 1 1.094 0v.656a.548.548 0 0 1-.547.547zm0-3.279a.547.547 0 0 1-.547-.546V50.7a.547.547 0 0 1 1.094 0v.656a.548.548 0 0 1-.547.546zm0-3.28a.547.547 0 0 1-.547-.546v-.656a.547.547 0 0 1 1.094 0v.656a.547.547 0 0 1-.547.546zm0-3.279a.547.547 0 0 1-.547-.547v-.656a.547.547 0 0 1 1.094 0v.656a.548.548 0 0 1-.547.547zm-.381-3.237a.546.546 0 0 1-.518-.374 7.193 7.193 0 0 0-.217-.567.547.547 0 0 1 1.003-.435c.093.214.177.435.251.656a.547.547 0 0 1-.519.72zm-1.672-2.79a.542.542 0 0 1-.397-.171 7.261 7.261 0 0 0-.436-.423.547.547 0 0 1 .726-.818c.175.156.345.32.505.49a.546.546 0 0 1-.398.922zm-2.693-1.825a.547.547 0 0 1-.201-.038 7.346 7.346 0 0 0-.574-.199.547.547 0 0 1 .312-1.048c.224.067.447.144.665.23a.546.546 0 0 1-.202 1.055zm-3.213-.524h-.656a.546.546 0 0 1 0-1.092h.656a.546.546 0 1 1 0 1.092zm-3.279 0h-.656a.546.546 0 0 1 0-1.092h.656a.546.546 0 1 1 0 1.092zm-3.279 0h-.656a.547.547 0 1 1 0-1.092h.656a.546.546 0 1 1 0 1.092zm-3.279 0h-.656a.547.547 0 1 1 0-1.092h.656a.546.546 0 0 1 0 1.092zm-3.28 0h-.656a.546.546 0 0 1 0-1.092h.656a.545.545 0 1 1 0 1.092zm-3.279 0h-.656a.547.547 0 1 1 0-1.092h.656a.546.546 0 1 1 0 1.092zm-3.279 0h-.656a.547.547 0 1 1 0-1.092h.656a.545.545 0 1 1 0 1.092zm-3.28 0h-.656a.547.547 0 1 1 0-1.092h.656a.545.545 0 1 1 0 1.092zm-3.279 0h-.656a.547.547 0 1 1 0-1.092h.656a.546.546 0 1 1 0 1.092zm-3.279 0h-.656a.547.547 0 1 1 0-1.092h.656a.545.545 0 1 1 0 1.092zm-3.28 0h-.656a.547.547 0 1 1 0-1.092h.656a.545.545 0 1 1 0 1.092zm-3.279 0h-.656a.546.546 0 0 1 0-1.092h.656a.546.546 0 1 1 0 1.092zm-3.279 0h-.656a.546.546 0 0 1 0-1.092h.656a.545.545 0 1 1 0 1.092zm-3.28 0h-.656a.547.547 0 1 1 0-1.092h.656a.546.546 0 1 1 0 1.092zm-3.279 0h-.656a.547.547 0 1 1 0-1.092h.656a.546.546 0 1 1 0 1.092zm-3.279 0h-.656a.547.547 0 1 1 0-1.092h.656a.545.545 0 1 1 0 1.092zm-3.28 0h-.656a.546.546 0 0 1 0-1.092h.656a.546.546 0 1 1 0 1.092zm-3.279 0h-.656a.547.547 0 1 1 0-1.092h.656a.546.546 0 1 1 0 1.092z" fill="#bd8f33"/></g><g><path d="M66.321 59.013c0 5.903 3.465 6.887 4.673 6.887h14.32a2.186 2.186 0 0 0 2.186-2.186v-9.401a2.186 2.186 0 0 0-2.186-2.186h-14.32c-1.208-.001-4.673 1.202-4.673 6.886z" fill="#cb902b"/><linearGradient id="SVGID_1_" gradientUnits="userSpaceOnUse" x1="69.438" y1="58.763" x2="78.695" y2="58.763"><stop offset="0" stop-color="#ab6928"/><stop offset="1" stop-color="#5c3813"/></linearGradient><circle cx="74.067" cy="58.763" r="4.629" fill="url(#SVGID_1_)"/><linearGradient id="SVGID_2_" gradientUnits="userSpaceOnUse" x1="74.067" y1="55.46" x2="74.067" y2="62.046"><stop offset="0" stop-color="#4a3d2c"/><stop offset="1" stop-color="#271e11"/></linearGradient><circle cx="74.067" cy="58.763" r="4.011" fill="url(#SVGID_2_)"/><linearGradient id="SVGID_3_" gradientUnits="userSpaceOnUse" x1="74.067" y1="55.238" x2="74.067" y2="57.743"><stop offset="0" stop-color="#685f51"/><stop offset="1" stop-color="#3c3120"/></linearGradient><path d="M74.067 55.132c-2.263 0-4.073 2.579-3.017 2.944.779.269 1.888-.509 3.017-.509s2.238.779 3.017.509c1.056-.364-.755-2.944-3.017-2.944z" fill="url(#SVGID_3_)"/><linearGradient id="SVGID_4_" gradientUnits="userSpaceOnUse" x1="74.067" y1="55.198" x2="74.067" y2="56.757"><stop offset="0" stop-color="#685f51"/><stop offset="1" stop-color="#958e84"/></linearGradient><path d="M74.067 55.132c-.813 0-2.36.388-3.13 1.867 1.303-1.357 3.13-1.293 3.13-1.293s1.827-.064 3.13 1.293c-.77-1.479-2.317-1.867-3.13-1.867z" fill="url(#SVGID_4_)"/></g></g></g><metadata xmlns:d="https://loading.io/stock/"><d:name>wallet</d:name><d:tags>wallet,kristi</d:tags><d:license>free</d:license><d:slug>b2l5ei</d:slug></metadata></svg>